<?xml version="1.0" encoding="UTF-8" standalone="no"?>
<!DOCTYPE svg PUBLIC "-//W3C//DTD SVG 1.1//EN" "http://www.w3.org/Graphics/SVG/1.1/DTD/svg11.dtd">
<!--Generated by Intaglio, www.PurgatoryDesign.com-->
<svg version="1.1" viewBox="0,0,1155,806" width="1155" height="806" xmlns="http://www.w3.org/2000/svg" xmlns:xlink="http://www.w3.org/1999/xlink" xmlns:intaglio="http://purgatorydesign.com/namespaces/intaglio" intaglio:grid="36,36,1,1,0.5,#9999bf,1,0,0,0" intaglio:guides="0.8,#f0f,0,1"><path fill="#fffffe" stroke="#000100" stroke-width="1.32794" d="M456.75,70.1284 C456.75,59.7599,470.197,51.3545,486.784,51.3545 L769.966,51.3545 C786.553,51.3545,800,59.7599,800,70.1284 L800,457.086 C800,467.455,786.553,475.86,769.966,475.86 L486.784,475.86 C470.197,475.86,456.75,467.455,456.75,457.086 Z"/><path fill="#ebebeb" stroke="#000100" stroke-width="1.41381" d="M670.25,114.041 L772.667,114.041 L772.667,299 L670.25,299 L670.25,114.041 Z"/><path fill="#fffffe" stroke="#000100" stroke-width="0.984134" d="M670.25,122.406 L772.667,122.406 L772.667,156.406 L670.25,156.406 L670.25,122.406 Z"/><path fill="#fffffe" stroke="#000100" stroke-width="0.984134" d="M670.25,169.514 L772.667,169.514 L772.667,203.514 L670.25,203.514 L670.25,169.514 Z"/><path fill="#fffffe" stroke="#000100" stroke-width="0.984134" d="M670.25,203.514 L772.667,203.514 L772.667,237.514 L670.25,237.514 L670.25,203.514 Z"/><path fill="#fffffe" stroke="#000100" stroke-width="0.984134" d="M670.25,265 L772.667,265 L772.667,299 L670.25,299 L670.25,265 Z"/><path fill="#fffffe" stroke="#000100" stroke-width="0.930943" d="M257.75,69.2681 C257.75,58.8995,265.007,50.4941,273.959,50.4941 L426.791,50.4941 C435.743,50.4941,443,58.8995,443,69.2681 L443,456.226 C443,466.595,435.743,475,426.791,475 L273.959,475 C265.007,475,257.75,466.595,257.75,456.226 Z"/><path fill="#fffffe" stroke="#000100" stroke-width="1.02421" d="M18,69.2681 C18,58.8995,26.8732,50.4941,37.8187,50.4941 L224.681,50.4941 C235.627,50.4941,244.5,58.8995,244.5,69.2681 L244.5,456.226 C244.5,466.595,235.627,475,224.681,475 L37.8187,475 C26.8732,475,18,466.595,18,456.226 Z"/><path fill="#d4d4d4" stroke="#000100" stroke-width="2" d="M278.75,122.5 L423.25,122.5 L423.25,441.5 L278.75,441.5 L278.75,122.5 Z"/><path fill="#fffffe" stroke="#000100" stroke-width="1.16284" d="M278.75,138.5 L423.25,138.5 L423.25,172.5 L278.75,172.5 L278.75,138.5 Z"/><text fill="#000100" font-family="Helvetica" font-size="24" text-anchor="middle" transform="matrix(1,0,0,1,350.959,164.107)" xml:space="preserve"><tspan>TEXT</tspan></text><path fill="#fffffe" stroke="#000100" stroke-width="1.16284" d="M278.75,189 L423.25,189 L423.25,223 L278.75,223 L278.75,189 Z"/><text fill="#000100" font-family="Helvetica" font-size="24" text-anchor="middle" transform="matrix(1,0,0,1,350.262,214.59)" xml:space="preserve"><tspan>BSS&amp;DATA</tspan></text><path fill="#fffffe" stroke="#000100" stroke-width="1.16284" d="M278.75,223 L423.25,223 L423.25,257 L278.75,257 L278.75,223 Z"/><text fill="#000100" font-family="Helvetica" font-size="24" text-anchor="middle" transform="matrix(1,0,0,1,350.607,248.607)" xml:space="preserve"><tspan>HEAP</tspan></text><path fill="#fffffe" stroke="#000100" stroke-width="1.16284" d="M278.75,407.5 L423.25,407.5 L423.25,441.5 L278.75,441.5 L278.75,407.5 Z"/><text fill="#000100" font-family="Helvetica" font-size="24" transform="matrix(1,0,0,1,302.303,433.107)" xml:space="preserve"><tspan>KERNEL</tspan></text><path fill="#d4d4d4" stroke="#000100" stroke-width="2" d="M60.8809,105.107 L205.381,105.107 L205.381,424.107 L60.8809,424.107 L60.8809,105.107 Z"/><path fill="#d4d4d4" stroke="#000100" stroke-width="2" d="M48.5312,114.107 L193.031,114.107 L193.031,433.107 L48.5312,433.107 L48.5312,114.107 Z"/><path fill="#d4d4d4" stroke="#000100" stroke-width="2" d="M37.5,122.5 L182,122.5 L182,441.5 L37.5,441.5 L37.5,122.5 Z"/><path fill="#fffffe" stroke="#000100" stroke-width="1.16284" d="M37.5,156.5 L182,156.5 L182,190.5 L37.5,190.5 L37.5,156.5 Z"/><text fill="#000100" font-family="Helvetica" font-size="24" text-anchor="middle" transform="matrix(1,0,0,1,109.709,182.107)" xml:space="preserve"><tspan>TEXT</tspan></text><path fill="#fffffe" stroke="#000100" stroke-width="1.16284" d="M37.5,229 L182,229 L182,263 L37.5,263 L37.5,229 Z"/><text fill="#000100" font-family="Helvetica" font-size="24" text-anchor="middle" transform="matrix(1,0,0,1,109.012,254.59)" xml:space="preserve"><tspan>BSS&amp;DATA</tspan></text><path fill="#fffffe" stroke="#000100" stroke-width="1.16284" d="M37.5,263 L182,263 L182,297 L37.5,297 L37.5,263 Z"/><text fill="#000100" font-family="Helvetica" font-size="24" text-anchor="middle" transform="matrix(1,0,0,1,109.357,288.607)" xml:space="preserve"><tspan>HEAP</tspan></text><path fill="#fffffe" stroke="#000100" stroke-width="1.16284" d="M37.5,335.5 L182,335.5 L182,369.5 L37.5,369.5 L37.5,335.5 Z"/><text fill="#000100" font-family="Helvetica" font-size="24" transform="matrix(1,0,0,1,70.1113,361.09)" xml:space="preserve"><tspan>STACK</tspan></text><path fill="#fffffe" stroke="#000100" stroke-width="1.16284" d="M37.5,407.5 L182,407.5 L182,441.5 L37.5,441.5 L37.5,407.5 Z"/><text fill="#000100" font-family="Helvetica" font-size="24" transform="matrix(1,0,0,1,61.0527,433.107)" xml:space="preserve"><tspan>KERNEL</tspan></text><text fill="#000100" font-family="Helvetica" font-size="48" transform="matrix(0.707107,-0.707107,0.707107,0.707107,208.093,279.476)" xml:space="preserve"><tspan>...</tspan></text><path fill="#fffffe" stroke="#000100" stroke-width="1.02764" d="M278.75,265 L423.25,265 L423.25,291.094 L278.75,291.094 L278.75,265 Z"/><text fill="#000100" font-family="Helvetica" font-size="24" transform="matrix(1,0,0,1,308.168,286.637)" xml:space="preserve"><tspan>STACK0</tspan></text><path fill="#fffffe" stroke="#000100" stroke-width="1.02764" d="M278.75,298 L423.25,298 L423.25,324.094 L278.75,324.094 L278.75,298 Z"/><text fill="#000100" font-family="Helvetica" font-size="24" transform="matrix(1,0,0,1,310.084,319.637)" xml:space="preserve"><tspan>STACK1</tspan></text><path fill="#fffffe" stroke="#000100" stroke-width="1.02764" d="M278.75,331 L423.25,331 L423.25,357.094 L278.75,357.094 L278.75,331 Z"/><text fill="#000100" font-family="Helvetica" font-size="24" transform="matrix(1,0,0,1,308.156,352.637)" xml:space="preserve"><tspan>STACK2</tspan></text><text fill="#000100" font-family="Helvetica" font-size="48" transform="matrix(6.12323e-17,1,-1,6.12323e-17,348.445,363.059)" xml:space="preserve"><tspan>...</tspan></text><text fill="#000100" font-family="Helvetica" font-size="24" transform="matrix(1,0,0,1,58.1191,83.9883)" xml:space="preserve"><tspan>Multi-Process</tspan></text><text fill="#000100" font-family="Helvetica" font-size="24" transform="matrix(1,0,0,1,279.082,84.0469)" xml:space="preserve"><tspan>Multi-Thread</tspan></text><path fill="#fff" fill-opacity="0" stroke="#000100" stroke-width="2" d="M37.5,122.5 L182,122.5 L182,441.5 L37.5,441.5 L37.5,122.5 Z"/><path fill="#fff" fill-opacity="0" stroke="#000100" stroke-width="2" d="M278.75,122.5 L423.25,122.5 L423.25,441.5 L278.75,441.5 L278.75,122.5 Z"/><path fill="#d4d4d4" stroke="#000100" stroke-width="2" d="M477.25,122.406 L621.75,122.406 L621.75,441.406 L477.25,441.406 L477.25,122.406 Z"/><path fill="#fffffe" stroke="#000100" stroke-width="1.00951" d="M477.25,291 L621.75,291 L621.75,375.473 L477.25,375.473 L477.25,291 Z"/><path fill="#fffffe" stroke="#000100" stroke-width="0.955169" d="M477.25,206.527 L621.75,206.527 L621.75,281.906 L477.25,281.906 L477.25,206.527 Z"/><path fill="#fffffe" stroke="#000100" stroke-width="0.959523" d="M477.25,122.406 L621.75,122.406 L621.75,198.514 L477.25,198.514 L477.25,122.406 Z"/><path fill="#fffffe" stroke="#000100" stroke-width="1.16284" d="M477.25,407.406 L621.75,407.406 L621.75,441.406 L477.25,441.406 L477.25,407.406 Z"/><text fill="#000100" font-family="Helvetica" font-size="24" transform="matrix(1,0,0,1,500.803,433.014)" xml:space="preserve"><tspan>KERNEL</tspan></text><text fill="#000100" font-family="Helvetica" font-weight="bold" font-size="24" transform="matrix(6.12323e-17,1,-1,6.12323e-17,548.223,380.801)" xml:space="preserve"><tspan>...</tspan></text><text fill="#000100" font-family="Helvetica" font-size="18" text-anchor="middle" transform="matrix(1,0,0,1,721.722,145.862)" xml:space="preserve"><tspan>TEXT</tspan></text><text fill="#000100" font-family="Helvetica" font-size="18" text-anchor="middle" transform="matrix(1,0,0,1,721.199,193.104)" xml:space="preserve"><tspan>BSS&amp;DATA</tspan></text><text fill="#000100" font-family="Helvetica" font-size="18" text-anchor="middle" transform="matrix(1,0,0,1,721.458,226.969)" xml:space="preserve"><tspan>HEAP</tspan></text><text fill="#000100" font-family="Helvetica" font-size="18" transform="matrix(1,0,0,1,692.024,288.442)" xml:space="preserve"><tspan>STACK</tspan></text><path fill="none" stroke="#000100" stroke-width="3" stroke-dasharray="3" d="M621.75,122.406 L670.25,117.085"/><path fill="none" stroke="#000100" stroke-width="3" stroke-dasharray="3" d="M621.75,197.514 L670.25,299"/><text fill="#000100" font-family="Helvetica" font-size="18" text-anchor="middle" transform="matrix(1,0,0,1,549.5,166.902)" xml:space="preserve"><tspan>PVAS Task0</tspan></text><text fill="#000100" font-family="Helvetica" font-size="18" text-anchor="middle" transform="matrix(1,0,0,1,549.5,252.349)" xml:space="preserve"><tspan>PVAS Task1</tspan></text><text fill="#000100" font-family="Helvetica" font-size="18" text-anchor="middle" transform="matrix(1,0,0,1,549.5,339.679)" xml:space="preserve"><tspan>PVAS Task2</tspan></text><path fill="#fff" fill-opacity="0" stroke="#000100" stroke-width="2" d="M477.25,122.5 L621.75,122.5 L621.75,441.5 L477.25,441.5 L477.25,122.5 Z"/><text fill="#000100" font-family="Helvetica" font-size="24" text-anchor="middle" transform="matrix(1,0,0,1,631.686,75.0469)" xml:space="preserve"><tspan>Partitioned Virtual</tspan><tspan x="0" y="24">Address Space (PVAS)</tspan></text></svg>
