<?xml version="1.0" encoding="UTF-8" standalone="no"?>
<!DOCTYPE svg PUBLIC "-//W3C//DTD SVG 1.1//EN" "http://www.w3.org/Graphics/SVG/1.1/DTD/svg11.dtd">
<!--Generated by Intaglio, www.PurgatoryDesign.com-->
<svg version="1.1" viewBox="0,0,1155,806" width="1155" height="806" xmlns="http://www.w3.org/2000/svg" xmlns:xlink="http://www.w3.org/1999/xlink" xmlns:intaglio="http://purgatorydesign.com/namespaces/intaglio" intaglio:grid="36,36,1,1,0.5,#9999bf,1,0,0,0" intaglio:guides="0.8,#f0f,1,1"><g><path fill="none" intaglio:arrow-end="4" stroke="#000100" stroke-width="1.5" d="M585,184 L404.55,274.225" intaglio:d="M585,184 L396.5,278.25"/><path fill="#000100" intaglio:omit="yes" d="M408.575,277.244 L396.5,278.25 L404.55,269.194 C403.418,272.59,405.179,276.112,408.575,277.244"/></g><g><path fill="none" intaglio:arrow-end="4" stroke="#000100" stroke-width="2.5" stroke-dasharray="3" d="M585,184 L763.661,273.331" intaglio:d="M585,184 L773.5,278.25"/><path fill="#000100" intaglio:omit="yes" d="M763.661,267.181 L773.5,278.25 L758.742,277.02 C762.893,275.637,765.045,271.332,763.661,267.181"/></g><g><path fill="none" intaglio:arrow-end="4" stroke="#000100" stroke-width="1.5" d="M368,292.5 L288.349,372.52" intaglio:d="M368,292.5 L282,378.898"/><path fill="#000100" intaglio:omit="yes" d="M293.126,374.099 L282,378.898 L286.747,367.75 C286.756,371.33,289.546,374.108,293.126,374.099"/></g><g><path fill="none" intaglio:arrow-end="4" stroke="#000100" stroke-width="2.5" stroke-dasharray="3" d="M800,292.5 L721.76,371.102" intaglio:d="M800,292.5 L714,378.898"/><path fill="#000100" intaglio:omit="yes" d="M727.598,373.033 L714,378.898 L719.802,365.273 C719.812,369.648,723.223,373.043,727.598,373.033"/></g><g><path fill="none" intaglio:arrow-end="4" stroke="#000100" stroke-width="2.5" stroke-dasharray="3" d="M800,292.5 L878.24,371.102" intaglio:d="M800,292.5 L886,378.898"/><path fill="#000100" intaglio:omit="yes" d="M880.198,365.273 L886,378.898 L872.402,373.033 C876.777,373.043,880.188,369.648,880.198,365.273"/></g><g><path fill="none" intaglio:arrow-end="4" stroke="#000100" stroke-width="1.5" d="M260,401 L223.509,487.188" intaglio:d="M260,401 L220,495.476"/><path fill="#000100" intaglio:omit="yes" d="M228.53,486.871 L220,495.476 L220.242,483.362 C221.586,486.68,225.212,488.215,228.53,486.871"/></g><g><path fill="none" intaglio:arrow-end="4" stroke="#000100" stroke-width="1.5" d="M260,401 L296.491,487.188" intaglio:d="M260,401 L300,495.476"/><path fill="#000100" intaglio:omit="yes" d="M299.758,483.362 L300,495.476 L291.47,486.871 C294.788,488.215,298.414,486.68,299.758,483.362"/></g><g><path fill="none" intaglio:arrow-end="4" stroke="#000100" stroke-width="2.5" stroke-dasharray="3" d="M478,401 L442.289,485.347" intaglio:d="M478,401 L438,495.476"/><path fill="#000100" intaglio:omit="yes" d="M448.426,484.959 L438,495.476 L438.296,480.67 C439.939,484.725,444.371,486.601,448.426,484.959"/></g><g><path fill="none" intaglio:arrow-end="4" stroke="#000100" stroke-width="2.5" stroke-dasharray="3" d="M478,401 L513.711,485.347" intaglio:d="M478,401 L518,495.476"/><path fill="#000100" intaglio:omit="yes" d="M517.704,480.67 L518,495.476 L507.574,484.959 C511.629,486.601,516.061,484.725,517.704,480.67"/></g><g><path fill="none" intaglio:arrow-end="4" stroke="#000100" stroke-width="1.5" d="M689,401 L652.509,487.188" intaglio:d="M689,401 L649,495.476"/><path fill="#000100" intaglio:omit="yes" d="M657.53,486.871 L649,495.476 L649.242,483.362 C650.586,486.68,654.212,488.215,657.53,486.871"/></g><g><path fill="none" intaglio:arrow-end="4" stroke="#000100" stroke-width="1.5" d="M368,292.5 L447.651,372.52" intaglio:d="M368,292.5 L454,378.898"/><path fill="#000100" intaglio:omit="yes" d="M449.253,367.75 L454,378.898 L442.874,374.099 C446.454,374.108,449.244,371.33,449.253,367.75"/></g><g><path fill="#ccc" stroke="#000100" d="M240,525 C240,542.949,225.449,557.5,207.5,557.5 C189.551,557.5,175,542.949,175,525 C175,507.051,189.551,492.5,207.5,492.5 C225.449,492.5,240,507.051,240,525 Z"/><text fill="#000100" font-family="Palatino" font-size="36" transform="matrix(1,0,0,1,198.913,537.542)" xml:space="preserve"><tspan>7</tspan></text><path fill="#ccc" stroke="#000100" d="M347.5,525 C347.5,542.949,332.949,557.5,315,557.5 C297.051,557.5,282.5,542.949,282.5,525 C282.5,507.051,297.051,492.5,315,492.5 C332.949,492.5,347.5,507.051,347.5,525 Z"/><text fill="#000100" font-family="Palatino" font-size="36" transform="matrix(1,0,0,1,306.413,537.542)" xml:space="preserve"><tspan>8</tspan></text><path fill="#ccc" stroke="#000100" d="M456,525 C456,542.949,441.449,557.5,423.5,557.5 C405.551,557.5,391,542.949,391,525 C391,507.051,405.551,492.5,423.5,492.5 C441.449,492.5,456,507.051,456,525 Z"/><text fill="#000100" font-family="Palatino" font-size="36" transform="matrix(1,0,0,1,414.913,537.542)" xml:space="preserve"><tspan>9</tspan></text><path fill="#ccc" stroke="#000100" d="M563.5,525 C563.5,542.949,548.949,557.5,531,557.5 C513.051,557.5,498.5,542.949,498.5,525 C498.5,507.051,513.051,492.5,531,492.5 C548.949,492.5,563.5,507.051,563.5,525 Z"/><text fill="#000100" font-family="Palatino" font-size="36" transform="matrix(1,0,0,1,522.413,537.542)" xml:space="preserve"><tspan>a</tspan></text><path fill="#ccc" stroke="#000100" d="M671.5,525 C671.5,542.949,656.949,557.5,639,557.5 C621.051,557.5,606.5,542.949,606.5,525 C606.5,507.051,621.051,492.5,639,492.5 C656.949,492.5,671.5,507.051,671.5,525 Z"/><text fill="#000100" font-family="Palatino" font-size="36" transform="matrix(1,0,0,1,630.413,537.542)" xml:space="preserve"><tspan>b</tspan></text><path fill="#ccc" stroke="#000100" d="M292.5,401 C292.5,418.949,277.949,433.5,260,433.5 C242.051,433.5,227.5,418.949,227.5,401 C227.5,383.051,242.051,368.5,260,368.5 C277.949,368.5,292.5,383.051,292.5,401 Z"/><text fill="#000100" font-family="Palatino" font-size="36" transform="matrix(1,0,0,1,251.413,413.542)" xml:space="preserve"><tspan>3</tspan></text><g><path fill="#fffffe" stroke="#000100" stroke-width="2.5" stroke-dasharray="3" d="M510.5,401 C510.5,418.949,495.949,433.5,478,433.5 C460.051,433.5,445.5,418.949,445.5,401 C445.5,383.051,460.051,368.5,478,368.5 C495.949,368.5,510.5,383.051,510.5,401 Z"/><text fill="#000100" font-family="Palatino" font-size="36" transform="matrix(1,0,0,1,469.413,413.542)" xml:space="preserve"><tspan>4</tspan></text></g><path fill="#ccc" stroke="#000100" d="M723,401 C723,418.949,708.449,433.5,690.5,433.5 C672.551,433.5,658,418.949,658,401 C658,383.051,672.551,368.5,690.5,368.5 C708.449,368.5,723,383.051,723,401 Z"/><text fill="#000100" font-family="Palatino" font-size="36" transform="matrix(1,0,0,1,681.913,413.542)" xml:space="preserve"><tspan>5</tspan></text><path fill="#ccc" stroke="#000100" d="M941,401 C941,418.949,926.449,433.5,908.5,433.5 C890.551,433.5,876,418.949,876,401 C876,383.051,890.551,368.5,908.5,368.5 C926.449,368.5,941,383.051,941,401 Z"/><text fill="#000100" font-family="Palatino" font-size="36" transform="matrix(1,0,0,1,899.913,413.542)" xml:space="preserve"><tspan>6</tspan></text><path fill="#ccc" stroke="#000100" d="M400.5,292.5 C400.5,310.449,385.949,325,368,325 C350.051,325,335.5,310.449,335.5,292.5 C335.5,274.551,350.051,260,368,260 C385.949,260,400.5,274.551,400.5,292.5 Z"/><text fill="#000100" font-family="Palatino" font-size="36" transform="matrix(1,0,0,1,359.413,305.042)" xml:space="preserve"><tspan>1</tspan></text><g><path fill="#fffffe" stroke="#000100" stroke-width="2.5" stroke-dasharray="3" d="M832.5,292.5 C832.5,310.449,817.949,325,800,325 C782.051,325,767.5,310.449,767.5,292.5 C767.5,274.551,782.051,260,800,260 C817.949,260,832.5,274.551,832.5,292.5 Z"/><text fill="#000100" font-family="Palatino" font-size="36" transform="matrix(1,0,0,1,791.413,305.042)" xml:space="preserve"><tspan>2</tspan></text></g><g><path fill="#fffffe" stroke="#000100" stroke-width="2.5" stroke-dasharray="3" d="M617.5,184 C617.5,201.949,602.949,216.5,585,216.5 C567.051,216.5,552.5,201.949,552.5,184 C552.5,166.051,567.051,151.5,585,151.5 C602.949,151.5,617.5,166.051,617.5,184 Z"/><text fill="#000100" font-family="Palatino" font-size="36" transform="matrix(1,0,0,1,576.413,196.542)" xml:space="preserve"><tspan>0</tspan></text></g><g><path fill="none" intaglio:arrow-end="4" stroke="#000100" stroke-width="2.5" d="M400.5,292.5 C400.5,292.5,607,285.5,648,295 C683.314,303.183,834.363,359.512,875.576,374.978" intaglio:d="M400.5,292.5 C400.5,292.5,607,285.5,648,295 C689,304.5,886,378.898,886,378.898"/><path fill="#000100" intaglio:omit="yes" d="M871.198,379.211 C876.132,379.1,881.066,379,886,378.898 C882.355,375.567,878.711,372.235,875.059,368.911 C876.94,372.646,875.071,377.633,871.198,379.211"/></g><g><path fill="none" intaglio:arrow-end="4" stroke="#000100" stroke-width="2.5" d="M400.5,292.5 C498,292.5,574.5,284,623,304.5 C656.723,318.754,676.908,341.952,686.079,354.765" intaglio:d="M400.5,292.5 C498,292.5,574.5,284,623,304.5 C671.5,325,692,364,692,364"/><path fill="#000100" intaglio:omit="yes" d="M680.009,355.785 C684.174,358.265,688.223,360.956,692,364 C691.34,359.017,690.217,354.107,688.872,349.269 C688.406,353.424,684.114,356.579,680.009,355.785"/></g><g><path fill="none" intaglio:arrow-end="4" stroke="#000100" stroke-width="2.5" d="M400.5,292.5 C400.5,292.5,478.008,318.026,498.5,335.699 C520,354.242,531,385.706,531,422.5 C531,445.74,531.405,466.751,531.7,478.949" intaglio:d="M400.5,292.5 C400.5,292.5,478.008,318.026,498.5,335.699 C520,354.242,531,385.706,531,422.5 C531,459,532,490,532,490"/><path fill="#000100" intaglio:omit="yes" d="M526.141,476.376 C528.075,480.925,530.023,485.469,532,490 C533.689,485.369,535.407,480.749,537.138,476.134 C534.364,479.241,529.04,479.411,526.141,476.376"/></g><g><path fill="none" intaglio:arrow-end="4" stroke="#000100" stroke-width="2.5" d="M400.5,292.5 C400.5,292.5,458,315.5,445.5,348.5 C438.447,367.121,423.5,383.73,423.5,413.5 C423.5,437.247,423.5,464.276,422.701,478.843" intaglio:d="M400.5,292.5 C400.5,292.5,458,315.5,445.5,348.5 C438.447,367.121,423.5,383.73,423.5,413.5 C423.5,448.238,423.5,490,421,489.5"/><path fill="#000100" intaglio:omit="yes" d="M417.34,475.86 C418.717,480.351,420.929,484.693,421,489.5 C424.635,485.841,426.081,480.819,428.329,476.339 C425.368,479.338,420.052,479,417.34,475.86"/></g></g></svg>
