<?xml version="1.0" encoding="UTF-8" standalone="no"?>
<!DOCTYPE svg PUBLIC "-//W3C//DTD SVG 1.1//EN" "http://www.w3.org/Graphics/SVG/1.1/DTD/svg11.dtd">
<!--Generated by Intaglio, www.PurgatoryDesign.com-->
<svg version="1.1" viewBox="0,0,1155,806" width="1155" height="806" xmlns="http://www.w3.org/2000/svg" xmlns:xlink="http://www.w3.org/1999/xlink" xmlns:intaglio="http://purgatorydesign.com/namespaces/intaglio" intaglio:grid="36,36,1,1,0.5,#9999bf,1,0,0,0" intaglio:guides="0.8,#f0f,1,1"><path fill="#fffffe" stroke="#000100" stroke-width="0.25" stroke-dasharray="1" d="M813.032,496.712 C813.032,496.712,686.063,536.059,686.063,536.059 C686.063,536.059,560.216,493.26,560.216,493.26 C560.216,493.26,483.56,384.664,483.56,384.664 C483.56,384.664,485.375,251.75,485.375,251.75 C485.375,251.75,564.968,145.288,564.968,145.288 C564.968,145.288,691.937,105.941,691.937,105.941 C691.937,105.941,817.784,148.74,817.784,148.74 C817.784,148.74,894.44,257.336,894.44,257.336 C894.44,257.336,892.625,390.25,892.625,390.25 C892.625,390.25,813.032,496.712,813.032,496.712 Z"/><path fill="none" stroke="#000100" stroke-width="0.25" stroke-dasharray="1" d="M483.5,254.5 L892.5,260"/><path fill="none" stroke="#000100" stroke-width="0.25" stroke-dasharray="1" d="M563.5,148 L689,530"/><path fill="none" stroke="#000100" stroke-width="0.25" stroke-dasharray="1" d="M563.5,148 L483.5,385"/><path fill="none" stroke="#000100" stroke-width="0.25" stroke-dasharray="1" d="M563.5,148 L892.5,390.5"/><path fill="none" stroke="#000100" stroke-width="0.25" stroke-dasharray="1" d="M563.5,148 L817.5,152"/><path fill="none" stroke="#000100" stroke-width="0.25" stroke-dasharray="1" d="M483.5,254.5 L689,108"/><path fill="none" stroke="#000100" stroke-width="0.25" stroke-dasharray="1" d="M483.5,254.5 L812.5,497"/><path fill="none" stroke="#000100" stroke-width="0.25" stroke-dasharray="1" d="M483.5,254.5 L559.5,493.5"/><path fill="none" stroke="#000100" stroke-width="0.25" stroke-dasharray="1" d="M483.5,385 L817.5,152"/><path fill="none" stroke="#000100" stroke-width="0.25" stroke-dasharray="1" d="M483.5,385 L689,530"/><path fill="none" stroke="#000100" stroke-width="0.25" stroke-dasharray="1" d="M559.5,493.5 L689,108"/><path fill="none" stroke="#000100" stroke-width="0.25" stroke-dasharray="1" d="M689,530 L892.5,390.5"/><path fill="none" stroke="#000100" stroke-width="0.25" stroke-dasharray="1" d="M812.5,497 L689,108"/><path fill="none" stroke="#000100" stroke-width="0.25" stroke-dasharray="1" d="M812.5,497 L892.5,260"/><path fill="none" stroke="#000100" stroke-width="0.25" stroke-dasharray="1" d="M817.5,152 L892.5,390.5"/><path fill="none" stroke="#000100" stroke-width="0.25" stroke-dasharray="1" d="M689,108 L892.5,260"/><path fill="none" stroke="#000100" stroke-width="3.5" stroke-dasharray="1" d="M689.97,108.362 L814.97,497.25"/><path fill="none" stroke="#000100" stroke-width="3.5" stroke-dasharray="1" d="M814.97,497.25 L894.021,390.25"/><path fill="none" stroke="#000100" stroke-width="3.5" stroke-dasharray="1" d="M814.97,497.25 L894.021,259.25"/><path fill="none" stroke="#000100" stroke-width="3.5" stroke-dasharray="1" d="M484.249,257.25 L814.97,497.25"/><path fill="none" stroke="#000100" stroke-width="3.5" stroke-dasharray="1" d="M562.47,493 L814.97,493"/><path fill="none" stroke="#000100" stroke-width="4.39267" stroke-dasharray="1.25505" d="M680.857,538.059 L814.97,497.25"/><path fill="none" stroke="#000100" stroke-width="2.25" stroke-dasharray="5" d="M562.47,497.25 L894.021,259.25"/><path fill="none" stroke="#000100" stroke-width="2.25" stroke-dasharray="5" d="M484.249,390.25 L894.021,390.25"/><path fill="none" stroke="#000100" stroke-width="2.25" stroke-dasharray="5" d="M818.47,148 L689.97,522.561"/><path fill="none" stroke="#000100" stroke-width="2.25" stroke-dasharray="20" d="M690.47,105.362 L689.97,522.561"/><path fill="none" stroke="#000100" stroke-width="2.25" stroke-dasharray="20" d="M485.614,259.25 L895.386,392.25"/><path fill="none" stroke="#000100" stroke-width="2.25" stroke-dasharray="20" d="M484.249,390.25 L894.021,259.25"/><path fill="none" stroke="#000100" stroke-width="2.25" stroke-dasharray="20" d="M562.47,497.25 L817.97,151"/><path fill="none" stroke="#000100" stroke-width="2.25" stroke-dasharray="20" d="M689.47,525.561 L894.021,259.25"/><path fill="none" stroke="#000100" stroke-width="2.25" stroke-dasharray="20" d="M562.47,497.25 L894.021,390.25"/><g><path fill="#fffffe" stroke="#000100" stroke-width="3" d="M724.47,110 C724.47,129.054,709.024,144.5,689.97,144.5 C670.916,144.5,655.47,129.054,655.47,110 C655.47,90.9462,670.916,75.5,689.97,75.5 C709.024,75.5,724.47,90.9462,724.47,110 Z"/><path fill="#fffffe" stroke="#000100" stroke-width="3" d="M724.47,532 C724.47,551.054,709.024,566.5,689.97,566.5 C670.916,566.5,655.47,551.054,655.47,532 C655.47,512.946,670.916,497.5,689.97,497.5 C709.024,497.5,724.47,512.946,724.47,532 Z"/><path fill="#fffffe" stroke="#000100" stroke-width="3" stroke-dasharray="2" d="M847.97,499 C847.97,518.054,832.524,533.5,813.47,533.5 C794.416,533.5,778.97,518.054,778.97,499 C778.97,479.946,794.416,464.5,813.47,464.5 C832.524,464.5,847.97,479.946,847.97,499 Z"/><path fill="#fffffe" stroke="#000100" stroke-width="3" d="M927.97,392.5 C927.97,411.554,912.524,427,893.47,427 C874.416,427,858.97,411.554,858.97,392.5 C858.97,373.446,874.416,358,893.47,358 C912.524,358,927.97,373.446,927.97,392.5 Z"/><path fill="#fffffe" stroke="#000100" stroke-width="3" d="M927.97,262 C927.97,281.054,912.524,296.5,893.47,296.5 C874.416,296.5,858.97,281.054,858.97,262 C858.97,242.946,874.416,227.5,893.47,227.5 C912.524,227.5,927.97,242.946,927.97,262 Z"/><path fill="#fffffe" stroke="#000100" stroke-width="3" d="M852.97,154 C852.97,173.054,837.524,188.5,818.47,188.5 C799.416,188.5,783.97,173.054,783.97,154 C783.97,134.946,799.416,119.5,818.47,119.5 C837.524,119.5,852.97,134.946,852.97,154 Z"/><path fill="#fffffe" stroke="#000100" stroke-width="3" d="M594.97,495.5 C594.97,476.446,579.524,461,560.47,461 C541.416,461,525.97,476.446,525.97,495.5 C525.97,514.554,541.416,530,560.47,530 C579.524,530,594.97,514.554,594.97,495.5 Z"/><path fill="#fffffe" stroke="#000100" stroke-width="3" d="M518.97,387 C518.97,367.946,503.524,352.5,484.47,352.5 C465.416,352.5,449.97,367.946,449.97,387 C449.97,406.054,465.416,421.5,484.47,421.5 C503.524,421.5,518.97,406.054,518.97,387 Z"/><path fill="#fffffe" stroke="#000100" stroke-width="3" d="M518.97,256.5 C518.97,237.446,503.524,222,484.47,222 C465.416,222,449.97,237.446,449.97,256.5 C449.97,275.554,465.416,291,484.47,291 C503.524,291,518.97,275.554,518.97,256.5 Z"/><path fill="#fffffe" stroke="#000100" stroke-width="3" d="M598.97,150 C598.97,130.946,583.524,115.5,564.47,115.5 C545.416,115.5,529.97,130.946,529.97,150 C529.97,169.054,545.416,184.5,564.47,184.5 C583.524,184.5,598.97,169.054,598.97,150 Z"/><text fill="#000100" font-family="Palatino" font-size="36" transform="matrix(1,0,0,1,809.076,163.164)" xml:space="preserve"><tspan>0</tspan></text><text fill="#000100" font-family="Palatino" font-size="36" transform="matrix(1,0,0,1,885.434,271.792)" xml:space="preserve"><tspan>1</tspan></text><text fill="#000100" font-family="Palatino" font-size="36" transform="matrix(1,0,0,1,885.329,402.669)" xml:space="preserve"><tspan>2</tspan></text><text fill="#000100" font-family="Palatino" font-size="36" transform="matrix(1,0,0,1,806.366,509.493)" xml:space="preserve"><tspan>3</tspan></text><text fill="#000100" font-family="Palatino" font-size="36" transform="matrix(1,0,0,1,680.857,538.059)" xml:space="preserve"><tspan>4</tspan></text><text fill="#000100" font-family="Palatino" font-size="36" transform="matrix(1,0,0,1,553.936,509.291)" xml:space="preserve"><tspan>5</tspan></text><text fill="#000100" font-family="Palatino" font-size="36" transform="matrix(1,0,0,1,475.24,402.528)" xml:space="preserve"><tspan>6</tspan></text><text fill="#000100" font-family="Palatino" font-size="36" transform="matrix(1,0,0,1,474.51,269.625)" xml:space="preserve"><tspan>7</tspan></text><text fill="#000100" font-family="Palatino" font-size="36" transform="matrix(1,0,0,1,555.576,162.155)" xml:space="preserve"><tspan>8</tspan></text><text fill="#000100" font-family="Palatino" font-size="36" transform="matrix(1,0,0,1,681.234,120.5)" xml:space="preserve"><tspan>9</tspan></text></g></svg>
