<?xml version="1.0" encoding="UTF-8" standalone="no"?>
<!DOCTYPE svg PUBLIC "-//W3C//DTD SVG 1.1//EN" "http://www.w3.org/Graphics/SVG/1.1/DTD/svg11.dtd">
<!--Generated by Intaglio, www.PurgatoryDesign.com-->
<svg version="1.1" viewBox="0,0,1155,806" width="1155" height="806" xmlns="http://www.w3.org/2000/svg" xmlns:xlink="http://www.w3.org/1999/xlink" xmlns:intaglio="http://purgatorydesign.com/namespaces/intaglio" intaglio:grid="36,36,1,1,0.5,#9999bf,1,0,0,0" intaglio:guides="0.8,#f0f,1,1"><path fill="#d4d4d4" stroke="#000100" stroke-width="2" d="M362.311,182.613 L506.811,182.613 L506.811,501.613 L362.311,501.613 L362.311,182.613 Z"/><path fill="#fffffe" stroke="#000100" stroke-width="1.16284" d="M362.311,467.613 L506.811,467.613 L506.811,501.613 L362.311,501.613 L362.311,467.613 Z"/><text fill="#000100" font-family="Helvetica" font-size="16" text-anchor="middle" transform="matrix(1,0,0,1,439.389,482.199)" xml:space="preserve"><tspan>KERNEL on</tspan><tspan x="0" y="16">Multi-Core</tspan></text><path fill="#fffffe" stroke="#000100" stroke-width="0.766132" d="M362.545,242.382 L507.045,242.382 L507.045,289.49 L362.545,289.49 L362.545,242.382 Z"/><text fill="#000100" font-family="Helvetica" font-size="18" text-anchor="middle" transform="matrix(1,0,0,1,434.326,272.504)" xml:space="preserve"><tspan>PVAS Task1</tspan></text><path fill="#fffffe" stroke="#000100" stroke-width="0.766132" d="M362.545,182.613 L507.045,182.613 L507.045,229.721 L362.545,229.721 L362.545,182.613 Z"/><text fill="#000100" font-family="Helvetica" font-size="18" text-anchor="middle" transform="matrix(1,0,0,1,434.795,212.609)" xml:space="preserve"><tspan>PVAS Task0</tspan></text><text fill="#000100" font-family="Helvetica" font-weight="bold" font-size="24" transform="matrix(6.12323e-17,1,-1,6.12323e-17,433.049,298.258)" xml:space="preserve"><tspan>...</tspan></text><path fill="#d4d4d4" stroke="#000100" stroke-width="2" d="M791.875,182.613 L936.375,182.613 L936.375,501.613 L791.875,501.613 L791.875,182.613 Z"/><path fill="#fffffe" stroke="#000100" stroke-width="1.16284" d="M791.875,467.613 L936.375,467.613 L936.375,501.613 L791.875,501.613 L791.875,467.613 Z"/><text fill="#000100" font-family="Helvetica" font-size="16" text-anchor="middle" transform="matrix(1,0,0,1,868.25,482.199)" xml:space="preserve"><tspan>KERNEL on</tspan><tspan x="0" y="16">Many-Core</tspan></text><text fill="#000100" font-family="Helvetica" font-weight="bold" font-size="24" transform="matrix(6.12323e-17,1,-1,6.12323e-17,862.848,441.008)" xml:space="preserve"><tspan>...</tspan></text><path fill="#fffffe" stroke="#000100" stroke-width="0.766132" d="M792.109,325.151 L936.609,325.151 L936.609,372.258 L792.109,372.258 L792.109,325.151 Z"/><text fill="#000100" font-family="Helvetica" font-size="18" text-anchor="middle" transform="matrix(1,0,0,1,864.359,355.147)" xml:space="preserve"><tspan>PVAS Task2</tspan></text><path fill="#fffffe" stroke="#000100" stroke-width="0.766132" d="M792.109,384.92 L936.609,384.92 L936.609,432.027 L792.109,432.027 L792.109,384.92 Z"/><text fill="#000100" font-family="Helvetica" font-size="18" text-anchor="middle" transform="matrix(1,0,0,1,864.359,414.916)" xml:space="preserve"><tspan>PVAS Task3</tspan></text><text fill="#000100" font-family="Helvetica" font-size="18" text-anchor="middle" transform="matrix(1,0,0,1,439.784,155.254)" xml:space="preserve"><tspan>Address Space on</tspan><tspan x="0" y="18">Multi-core CPU</tspan></text><text fill="#000100" font-family="Helvetica" font-size="18" text-anchor="middle" transform="matrix(1,0,0,1,869.817,153.496)" xml:space="preserve"><tspan>Address Space on</tspan><tspan x="0" y="18">Many-core CPU</tspan></text><g><g><path fill="none" intaglio:arrow-end="5" stroke="#000100" stroke-width="1.88431" d="M508,205.5 L567.154,205.5" intaglio:d="M508,205.5 L577.533,205.5"/><path fill="none" intaglio:omit="yes" stroke="#000100" stroke-width="1.88431" d="M565.322,200.616 L577.533,205.5 L565.322,210.384 C568.07,207.637,568.07,203.363,565.322,200.616 Z"/></g><g><path fill="none" intaglio:arrow-end="5" stroke="#000100" stroke-width="1.88431" d="M508.576,262.257 L567.73,262.257" intaglio:d="M508.576,262.257 L578.109,262.257"/><path fill="none" intaglio:omit="yes" stroke="#000100" stroke-width="1.88431" d="M565.899,257.373 L578.109,262.257 L565.899,267.141 C568.646,264.394,568.646,260.12,565.899,257.373 Z"/></g></g><g><g><path fill="none" intaglio:arrow-end="5" stroke="#000100" stroke-width="1.88431" d="M792.953,350.896 L733.799,350.896" intaglio:d="M792.953,350.896 L723.42,350.896"/><path fill="none" intaglio:omit="yes" stroke="#000100" stroke-width="1.88431" d="M735.631,355.78 L723.42,350.896 L735.631,346.012 C732.883,348.759,732.883,353.033,735.631,355.78 Z"/></g><g><path fill="none" intaglio:arrow-end="5" stroke="#000100" stroke-width="1.88431" d="M792.377,407.653 L733.223,407.653" intaglio:d="M792.377,407.653 L722.844,407.653"/><path fill="none" intaglio:omit="yes" stroke="#000100" stroke-width="1.88431" d="M735.055,412.538 L722.844,407.653 L735.055,402.769 C732.307,405.516,732.307,409.79,735.055,412.538 Z"/></g></g><text fill="#000100" font-family="Helvetica" font-size="18" transform="matrix(1,0,0,1,511.5,199.747)" xml:space="preserve"><tspan>mmap</tspan></text><text fill="#000100" font-family="Helvetica" font-size="18" transform="matrix(1,0,0,1,511.5,255.747)" xml:space="preserve"><tspan>mmap</tspan></text><text fill="#000100" font-family="Helvetica" font-size="18" transform="matrix(1,0,0,1,738.578,345.152)" xml:space="preserve"><tspan>mmap</tspan></text><text fill="#000100" font-family="Helvetica" font-size="18" transform="matrix(1,0,0,1,738.578,401.152)" xml:space="preserve"><tspan>mmap</tspan></text><path fill="#fff" fill-opacity="0" stroke="#000100" stroke-width="2" d="M792.109,182.238 L936.609,182.238 L936.609,501.238 L792.109,501.238 L792.109,182.238 Z"/><path fill="#fff" fill-opacity="0" stroke="#000100" stroke-width="2" d="M361.5,182.238 L506,182.238 L506,501.238 L361.5,501.238 L361.5,182.238 Z"/><path fill="none" stroke="#000100" stroke-width="1.30165" stroke-dasharray="5.20661" d="M278,522 L969,522"/><g><path fill="#fffffe" stroke="#000100" stroke-width="1.5" d="M350.149,545.854 C350.149,543.45,352.874,541.5,356.235,541.5 L421.927,541.5 C425.288,541.5,428.013,543.45,428.013,545.854 L428.013,586.91 C428.013,589.315,425.288,591.265,421.927,591.265 L356.235,591.265 C352.874,591.265,350.149,589.315,350.149,586.91 Z"/><text fill="#000100" font-family="Helvetica" font-size="16" text-anchor="middle" transform="matrix(1,0,0,1,391.062,566.219)" xml:space="preserve"><tspan>Multi-Core</tspan><tspan x="0" y="20">CPU</tspan></text><path fill="none" stroke="#000100" stroke-width="3.5" d="M428.013,567.477 L468.649,567.477"/><path fill="#fffffe" stroke="#000100" stroke-width="1.5" d="M448.149,545.854 C448.149,543.45,450.735,541.5,453.924,541.5 L516.263,541.5 C519.453,541.5,522.038,543.45,522.038,545.854 L522.038,586.91 C522.038,589.315,519.453,591.265,516.263,591.265 L453.924,591.265 C450.735,591.265,448.149,589.315,448.149,586.91 Z"/><text fill="#000100" font-family="Helvetica" font-size="16" text-anchor="middle" transform="matrix(1,0,0,1,485.094,570.406)" xml:space="preserve"><tspan>Memory</tspan></text></g><path fill="none" stroke="#000100" stroke-width="3.5" d="M855.81,567.477 L896.446,567.477"/><path fill="#fffffe" stroke="#000100" stroke-width="1.5" d="M875.946,545.854 C875.946,543.45,878.532,541.5,881.721,541.5 L944.06,541.5 C947.249,541.5,949.835,543.45,949.835,545.854 L949.835,586.91 C949.835,589.315,947.249,591.265,944.06,591.265 L881.721,591.265 C878.532,591.265,875.946,589.315,875.946,586.91 Z"/><text fill="#000100" font-family="Helvetica" font-size="16" text-anchor="middle" transform="matrix(1,0,0,1,912.891,570.406)" xml:space="preserve"><tspan>Memory</tspan></text><g><path fill="#fffffe" stroke="#000100" stroke-width="1.57784" d="M777.946,545.854 C777.946,543.45,780.954,541.5,784.664,541.5 L857.173,541.5 C860.883,541.5,863.891,543.45,863.891,545.854 L863.891,586.91 C863.891,589.315,860.883,591.265,857.173,591.265 L784.664,591.265 C780.954,591.265,777.946,589.315,777.946,586.91 Z"/><text fill="#000100" font-family="Helvetica" font-size="16" text-anchor="middle" transform="matrix(1,0,0,1,822.899,563.219)" xml:space="preserve"><tspan>Many-Core</tspan><tspan x="0" y="20">CPU</tspan></text></g><path fill="none" stroke="#000100" stroke-width="3.26883" d="M361.5,612.75 L944.335,612.75"/><text fill="#000100" font-family="Helvetica" font-size="18" transform="matrix(1,0,0,1,613.013,604.527)" xml:space="preserve"><tspan>PCIe bus</tspan></text><path fill="none" stroke="#000100" stroke-width="2.5" d="M387.25,591.265 L387.25,612.75"/><path fill="none" stroke="#000100" stroke-width="2.5" d="M821.139,591.265 L821.139,612.75"/><text fill="#000100" font-family="Helvetica" font-size="18" transform="matrix(1,0,0,1,290.5,571.84)" xml:space="preserve"><tspan>H/W</tspan></text><text fill="#000100" font-family="Helvetica" font-size="18" transform="matrix(1,0,0,1,290.5,327.84)" xml:space="preserve"><tspan>S/W</tspan></text><path fill="#d4d4d4" stroke="#000100" stroke-width="2" d="M578.109,181.863 L722.609,181.863 L722.609,500.863 L578.109,500.863 L578.109,181.863 Z"/><path fill="#fffffe" stroke="#000100" stroke-width="1.16284" d="M578.109,466.863 L722.609,466.863 L722.609,500.863 L578.109,500.863 L578.109,466.863 Z"/><text fill="#000100" font-family="Helvetica" font-size="16" text-anchor="middle" transform="matrix(1,0,0,1,649.672,491.179)" xml:space="preserve"><tspan>KERNEL</tspan></text><text fill="#000100" font-family="Helvetica" font-weight="bold" font-size="24" transform="matrix(6.12323e-17,1,-1,6.12323e-17,649.082,440.257)" xml:space="preserve"><tspan>...</tspan></text><path fill="#fffffe" stroke="#000100" stroke-width="0.766132" d="M578.344,324.4 L722.844,324.4 L722.844,371.508 L578.344,371.508 L578.344,324.4 Z"/><text fill="#000100" font-family="Helvetica" font-size="18" text-anchor="middle" transform="matrix(1,0,0,1,650.594,354.396)" xml:space="preserve"><tspan>MPVAS Task2</tspan></text><path fill="#fffffe" stroke="#000100" stroke-width="0.766132" d="M578.344,384.169 L722.844,384.169 L722.844,431.277 L578.344,431.277 L578.344,384.169 Z"/><text fill="#000100" font-family="Helvetica" font-size="18" text-anchor="middle" transform="matrix(1,0,0,1,650.594,414.165)" xml:space="preserve"><tspan>MPVAS Task3</tspan></text><path fill="#fffffe" stroke="#000100" stroke-width="0.766132" d="M578.344,241.632 L722.844,241.632 L722.844,288.739 L578.344,288.739 L578.344,241.632 Z"/><text fill="#000" font-family="Helvetica" font-size="18" text-anchor="middle" transform="matrix(1,0,0,1,650.125,271.754)" xml:space="preserve"><tspan>MPVAS Task1</tspan></text><path fill="#fffffe" stroke="#000100" stroke-width="0.766132" d="M578.344,181.863 L722.844,181.863 L722.844,228.97 L578.344,228.97 L578.344,181.863 Z"/><text fill="#000" font-family="Helvetica" font-size="18" text-anchor="middle" transform="matrix(1,0,0,1,650.594,211.859)" xml:space="preserve"><tspan>MPVAS Task0</tspan></text><text fill="#000100" font-family="Helvetica" font-weight="bold" font-size="24" transform="matrix(6.12323e-17,1,-1,6.12323e-17,648.848,297.507)" xml:space="preserve"><tspan>...</tspan></text><path fill="#fff" fill-opacity="0" stroke="#000100" stroke-width="2" d="M577.875,181.863 L722.375,181.863 L722.375,500.863 L577.875,500.863 L577.875,181.863 Z"/><text fill="#000100" font-family="Helvetica" font-size="24" text-anchor="middle" transform="matrix(1,0,0,1,650.822,144.593)" xml:space="preserve"><tspan>MPVAS</tspan><tspan x="0" y="24">Address Space</tspan></text></svg>
